<svg width="80" height="78" viewBox="0 0 80 78" version="1.1" xmlns="http://www.w3.org/2000/svg" xmlns:xlink="http://www.w3.org/1999/xlink">
<title>In Icon</title>
<desc>Created using Figma</desc>
<g id="Canvas" transform="translate(-1860 -598)">
<g id="In Icon">
<g id="Rectangle">
<mask id="mask0_outline_ins">
<use xlink:href="#path0_fill" fill="white" transform="translate(1860 598)"/>
</mask>
<g mask="url(#mask0_outline_ins)">
<use xlink:href="#path1_stroke_2x" transform="translate(1860 598)" fill="#F2F2F2"/>
</g>
</g>
<g id="in">
<use xlink:href="#path2_fill" transform="translate(1874 612)" fill="#F2F2F2"/>
</g>
</g>
</g>
<defs>
<path id="path0_fill" d="M 0 15C 0 6.71572 6.71573 0 15 0L 65 0C 73.2843 0 80 6.71573 80 15L 80 62.7778C 80 71.0621 73.2843 77.7778 65 77.7778L 15 77.7778C 6.71573 77.7778 0 71.062 0 62.7778L 0 15Z"/>
<path id="path1_stroke_2x" d="M 15 5L 65 5L 65 -5L 15 -5L 15 5ZM 75 15L 75 62.7778L 85 62.7778L 85 15L 75 15ZM 65 72.7778L 15 72.7778L 15 82.7778L 65 82.7778L 65 72.7778ZM 5 62.7778L 5 15L -5 15L -5 62.7778L 5 62.7778ZM 15 72.7778C 9.47715 72.7778 5 68.3006 5 62.7778L -5 62.7778C -5 73.8235 3.95431 82.7778 15 82.7778L 15 72.7778ZM 75 62.7778C 75 68.3006 70.5229 72.7778 65 72.7778L 65 82.7778C 76.0457 82.7778 85 73.8235 85 62.7778L 75 62.7778ZM 65 5C 70.5228 5 75 9.47715 75 15L 85 15C 85 3.95431 76.0457 -5 65 -5L 65 5ZM 15 -5C 3.95431 -5 -5 3.95429 -5 15L 5 15C 5 9.47715 9.47715 5 15 5L 15 -5Z"/>
<path id="path2_fill" d="M 14.4609 9.48438L 14.4609 14.4062L 8.25 14.4062L 8.25 9.48438L 14.4609 9.48438ZM 14.4609 18.3906L 14.4609 43L 8.25 43L 8.25 18.3906L 14.4609 18.3906ZM 20.3438 43L 20.3438 18.3906L 25.1484 18.3906L 25.9219 22C 28.2812 19.5938 30.9688 18.3906 33.9844 18.3906C 39.8125 18.3906 42.7266 21.4219 42.7266 27.4844L 42.7266 43L 36.5156 43L 36.5156 27.4844C 36.5156 24.7656 35.1641 23.4062 32.4609 23.4062C 30.4453 23.4062 28.4766 24.2109 26.5547 25.8203L 26.5547 43L 20.3438 43Z"/>
</defs>
</svg>
